<svg width="1920" height="1080" viewBox="0 0 1920 1080" fill="none" xmlns="http://www.w3.org/2000/svg">
<g clip-path="url(#clip0_84_821)">
<rect width="1920" height="1080" fill="white"/>
<rect width="1920" height="1080" fill="#113D3C"/>
<path d="M1445.87 727.344V778.154L1431.74 758.185V729.982L1445.87 727.344Z" fill="#0C706E" stroke="#FFF6DB" stroke-linecap="round" stroke-linejoin="round"/>
<path d="M1395.07 758.966L1445.87 824.361V778.154L1431.74 758.185L1395.07 758.966Z" fill="#00B2AA" stroke="#FFF6DB" stroke-linecap="round" stroke-linejoin="round"/>
<path d="M1395.07 805.173L1445.87 872.143V824.361L1395.07 758.966V805.173Z" fill="#0C706E" stroke="#FFF6DB" stroke-linecap="round" stroke-linejoin="round"/>
<path d="M1358.71 805.173L1411.57 872.143H1445.87L1395.07 805.173H1358.71Z" fill="#00B2AA" stroke="#FFF6DB" stroke-linecap="round" stroke-linejoin="round"/>
<path d="M1357.19 849.82L1372.77 872.143H1411.57L1358.71 805.173L1357.19 849.82Z" fill="#0C706E" stroke="#FFF6DB" stroke-linecap="round" stroke-linejoin="round"/>
<path d="M1319.6 849.82L1337.63 872.143H1372.77L1357.19 849.82H1319.6Z" fill="#00B2AA" stroke="#FFF6DB" stroke-linecap="round" stroke-linejoin="round"/>
<path d="M1319.6 872.143H1337.63L1319.6 849.82V872.143Z" fill="#0C706E" stroke="#FFF6DB" stroke-linecap="round" stroke-linejoin="round"/>
<path d="M1642.49 1080.36V854.274C1642.49 816.099 1673.45 785.164 1711.61 785.164H1765.52C1781.46 785.164 1794.38 772.247 1794.38 756.315V679.213C1794.38 649.139 1818.76 624.771 1848.83 624.771H1924.29" stroke="#27BCE1" stroke-width="2" stroke-miterlimit="10"/>
<path d="M1656.76 1080.36V856.198C1656.76 823.998 1682.87 800.773 1715.07 800.773H1769C1790.89 800.773 1808.64 783.025 1808.64 761.132V683.586C1808.64 658.128 1829.29 637.486 1854.75 637.486H1924.3" stroke="#27BCE1" stroke-width="2" stroke-miterlimit="10"/>
<path d="M1672.42 1080.36V855.646C1672.42 831.722 1691.82 816.786 1715.76 816.786H1767.17C1798.74 816.786 1824.32 791.193 1824.32 759.639V680.962C1824.32 664.923 1837.32 651.924 1853.36 651.924H1924.31" stroke="#27BCE1" stroke-width="2" stroke-miterlimit="10"/>
<path d="M1687.24 1080.36V851.757C1687.24 839.445 1697.23 831.923 1709.53 831.923H1768.75C1807.62 831.923 1839.13 800.423 1839.13 761.563V682.684C1839.13 675.176 1845.22 669.081 1852.73 669.081H1924.29" stroke="#27BCE1" stroke-width="2" stroke-miterlimit="10"/>
<path d="M1642.49 1080.36V945.491C1642.49 907.317 1611.54 876.382 1573.37 876.382H1519.46C1503.53 876.382 1490.61 863.464 1490.61 847.532V611.113C1490.61 589.234 1472.87 571.485 1450.98 571.485H1437.13C1413.99 571.485 1395.23 552.728 1395.23 529.597V464" stroke="#27BCE1" stroke-width="2" stroke-miterlimit="10"/>
<path d="M1628.24 1080.36V947.415C1628.24 915.215 1602.13 891.883 1569.93 891.883H1516C1494.11 891.883 1476.36 871.349 1476.36 849.456V613.804C1476.36 598.397 1463.87 585.923 1448.47 585.923H1436.23C1406.99 585.923 1383.31 562.241 1383.31 533.015V464" stroke="#27BCE1" stroke-width="2" stroke-miterlimit="10"/>
<path d="M1612.58 1080.36V946.877C1612.58 922.952 1593.18 907.922 1569.24 907.922H1517.83C1486.26 907.922 1460.68 877.969 1460.68 846.415V615.715C1460.68 606.161 1452.93 598.41 1443.37 598.41H1431.68C1397.78 598.41 1370.3 570.934 1370.3 537.038V464.013" stroke="#27BCE1" stroke-width="2" stroke-miterlimit="10"/>
<path d="M1597.76 1080.36V942.988C1597.76 930.676 1587.77 923.046 1575.47 923.046H1516.25C1477.38 923.046 1445.87 889.191 1445.87 850.331V620.532C1445.87 615.149 1441.51 610.803 1436.14 610.803H1427.63C1388.98 610.803 1357.66 579.478 1357.66 540.846V464.013" stroke="#27BCE1" stroke-width="2" stroke-miterlimit="10"/>
<path d="M1642.49 779.244V644.376C1642.49 606.201 1673.45 575.266 1711.61 575.266H1765.52C1781.46 575.266 1794.38 562.349 1794.38 546.417V479.568" stroke="#27BCE1" stroke-width="2" stroke-miterlimit="10"/>
<path d="M1656.76 779.244V646.3C1656.76 614.1 1682.87 587.996 1715.07 587.996H1769C1790.89 587.996 1808.64 570.247 1808.64 548.355V479.568" stroke="#27BCE1" stroke-width="2" stroke-miterlimit="10"/>
<path d="M1672.42 779.244V645.762C1672.42 621.837 1691.82 602.434 1715.76 602.434H1767.17C1798.74 602.434 1824.32 576.841 1824.32 545.287V479.582" stroke="#27BCE1" stroke-width="2" stroke-miterlimit="10"/>
<path d="M1687.24 779.244V641.873C1687.24 629.561 1697.23 619.59 1709.53 619.59H1768.75C1807.62 619.59 1839.13 588.09 1839.13 549.229V479.582" stroke="#27BCE1" stroke-width="2" stroke-miterlimit="10"/>
<path d="M1642.49 1080.36V775.88C1642.49 748.726 1620.48 726.725 1593.33 726.725H1319.6" stroke="#27BCE1" stroke-width="2" stroke-miterlimit="10"/>
<path d="M1656.76 1080.36V770.053C1656.76 737.759 1630.57 711.574 1598.27 711.574H1319.6" stroke="#27BCE1" stroke-width="2" stroke-miterlimit="10"/>
<path d="M1672.42 1080.36V765.519C1672.42 726.873 1641.09 695.548 1602.44 695.548H1319.59" stroke="#27BCE1" stroke-width="2" stroke-miterlimit="10"/>
<path d="M1320.5 695.55H1318.5H-17" stroke="#27BCE1" stroke-width="2"/>
<path d="M1319.5 680H1317.5H-18" stroke="#27BCE1" stroke-width="2"/>
<path d="M1320.5 711.57H1318.5H-17" stroke="#27BCE1" stroke-width="2"/>
<path d="M1320.5 726.72H1318.5H-17" stroke="#27BCE1" stroke-width="2"/>
<path d="M1687.24 1080.36V759.315C1687.24 715.503 1651.71 679.98 1607.89 679.98H1319.6" stroke="#27BCE1" stroke-width="2" stroke-miterlimit="10"/>
<path d="M1920.26 831.937H1724.02" stroke="#27BCE1" stroke-width="2" stroke-miterlimit="10"/>
<path d="M1920.26 816.786H1724.02" stroke="#27BCE1" stroke-width="2" stroke-miterlimit="10"/>
<path d="M1920.26 800.773H1724.02" stroke="#27BCE1" stroke-width="2" stroke-miterlimit="10"/>
<path d="M1920.26 785.191H1724.02" stroke="#27BCE1" stroke-width="2" stroke-miterlimit="10"/>
<path d="M1552.37 923.046H0" stroke="#27BCE1" stroke-width="2" stroke-miterlimit="10"/>
<path d="M1552.37 907.909H0" stroke="#27BCE1" stroke-width="2" stroke-miterlimit="10"/>
<path d="M1552.37 891.896H0" stroke="#27BCE1" stroke-width="2" stroke-miterlimit="10"/>
<path d="M1552.37 876.314H0" stroke="#27BCE1" stroke-width="2" stroke-miterlimit="10"/>
<path d="M1726.03 958.26H1728.42C1732.11 958.26 1735.11 961.261 1735.11 964.948V987.352H1719.35V964.948C1719.35 961.261 1722.35 958.26 1726.04 958.26H1726.03Z" fill="#FFF6DB"/>
<path d="M1735.1 978.646C1768.26 971.03 1746.51 943.58 1746.51 943.58L1749.5 937.054C1789.99 977.543 1741.07 991.954 1741.07 991.954L1736.17 1010.43H1717.7L1712.8 990.595C1712.8 990.595 1669.3 977.004 1704.37 937.054L1707.36 943.849C1707.36 943.849 1687.16 969.536 1719.32 978.363L1735.08 978.633L1735.1 978.646Z" fill="#00B2AA"/>
<path d="M1718.31 1042.25H1710.44V1080.36H1718.31V1042.25Z" fill="#FFF6DB"/>
<path d="M1742.97 1042.25H1735.1V1080.36H1742.97V1042.25Z" fill="#FFF6DB"/>
<path d="M1717.71 1010.44H1736.19C1736.19 1010.44 1751.69 1018.03 1748.96 1044.74H1706.16C1706.16 1044.74 1702.25 1019.24 1717.71 1010.44Z" fill="#113D3C"/>
<path d="M1707.33 875.413C1710.65 875.413 1713.34 872.726 1713.34 869.411C1713.34 866.097 1710.65 863.41 1707.33 863.41C1704.02 863.41 1701.33 866.097 1701.33 869.411C1701.33 872.726 1704.02 875.413 1707.33 875.413Z" fill="#CADF7E"/>
<path d="M1725.34 859.306C1728.65 859.306 1731.34 856.619 1731.34 853.305C1731.34 849.99 1728.65 847.303 1725.34 847.303C1722.02 847.303 1719.34 849.99 1719.34 853.305C1719.34 856.619 1722.02 859.306 1725.34 859.306Z" fill="#CADF7E"/>
<path d="M1742.98 875.413C1746.3 875.413 1748.98 872.726 1748.98 869.411C1748.98 866.097 1746.3 863.41 1742.98 863.41C1739.67 863.41 1736.98 866.097 1736.98 869.411C1736.98 872.726 1739.67 875.413 1742.98 875.413Z" fill="#CADF7E"/>
<path d="M1749.28 893.968C1752.6 893.968 1755.28 891.281 1755.28 887.967C1755.28 884.653 1752.6 881.966 1749.28 881.966C1745.97 881.966 1743.28 884.653 1743.28 887.967C1743.28 891.281 1745.97 893.968 1749.28 893.968Z" fill="#CADF7E"/>
<path d="M1725.34 853.305V923.571C1729.32 898.759 1707.33 869.411 1707.33 869.411" stroke="#CADF7E" stroke-miterlimit="10"/>
<path d="M1725.34 923.571C1725.23 895.852 1742.98 869.411 1742.98 869.411" stroke="#CADF7E" stroke-miterlimit="10"/>
<path d="M1749.28 887.967C1749.28 887.967 1731.26 894.17 1725.34 926.935" stroke="#CADF7E" stroke-miterlimit="10"/>
<path d="M1695.05 919.629L1710.44 951.304H1742.98L1759.75 919.629H1695.05Z" fill="#113D3C"/>
<path d="M1489.69 779.244C1489.69 779.244 1381.43 695.346 1489.69 587.094C1489.69 587.094 1605.79 683.169 1489.69 779.244Z" fill="#CADF7E"/>
<path d="M1489.69 779.244C1489.69 779.244 1381.43 695.346 1489.69 587.094C1489.69 587.094 1605.79 683.169 1489.69 779.244Z" stroke="#0C706E" stroke-width="2" stroke-miterlimit="10"/>
<path d="M1489.92 766.972C1489.92 766.972 1395.49 693.785 1489.92 599.366C1489.92 599.366 1591.19 683.169 1489.92 766.972Z" stroke="#0C706E" stroke-width="2" stroke-miterlimit="10"/>
<path d="M1490.18 754.014C1490.18 754.014 1411.97 693.422 1490.18 615.23C1490.18 615.23 1574.03 684.622 1490.18 754.014Z" stroke="#0C706E" stroke-width="2" stroke-miterlimit="10"/>
<path d="M1490.77 738.997C1490.77 738.997 1429.5 691.525 1490.77 630.26C1490.77 630.26 1556.47 684.635 1490.77 738.997Z" stroke="#0C706E" stroke-width="2" stroke-miterlimit="10"/>
<path d="M1491.01 725.205C1491.01 725.205 1445.28 689.776 1491.01 644.039C1491.01 644.039 1540.05 684.622 1491.01 725.205Z" stroke="#0C706E" stroke-width="2" stroke-miterlimit="10"/>
<path d="M1851.3 965.782C1851.3 965.782 1803.73 928.913 1851.3 881.347C1851.3 881.347 1902.32 923.558 1851.3 965.782Z" fill="#CADF7E"/>
<path d="M1851.3 965.782C1851.3 965.782 1803.73 928.913 1851.3 881.347C1851.3 881.347 1902.32 923.558 1851.3 965.782Z" stroke="#0C706E" stroke-miterlimit="10"/>
<path d="M1851.4 960.4C1851.4 960.4 1809.91 928.24 1851.4 886.756C1851.4 886.756 1895.9 923.585 1851.4 960.4Z" stroke="#0C706E" stroke-miterlimit="10"/>
<path d="M1851.51 954.708C1851.51 954.708 1817.15 928.079 1851.51 893.726C1851.51 893.726 1888.35 924.217 1851.51 954.708Z" stroke="#0C706E" stroke-miterlimit="10"/>
<path d="M1851.78 948.101C1851.78 948.101 1824.85 927.245 1851.78 900.319C1851.78 900.319 1880.64 924.204 1851.78 948.101Z" stroke="#0C706E" stroke-miterlimit="10"/>
<path d="M1851.88 942.046C1851.88 942.046 1831.79 926.478 1851.88 906.388C1851.88 906.388 1873.43 924.217 1851.88 942.046Z" stroke="#0C706E" stroke-miterlimit="10"/>
<path d="M1640.29 787.183H1562.77V864.688H1640.29V787.183Z" fill="#CA8A2A"/>
<path d="M1595.69 751.767L1631.3 787.183" stroke="#D4AA4F" stroke-linecap="round" stroke-linejoin="round"/>
<path d="M1584.96 751.767L1620.56 787.183" stroke="#D4AA4F" stroke-linecap="round" stroke-linejoin="round"/>
<path d="M1573.25 751.767L1608.85 787.183" stroke="#D4AA4F" stroke-linecap="round" stroke-linejoin="round"/>
<path d="M1560.09 751.767L1595.69 787.183" stroke="#D4AA4F" stroke-linecap="round" stroke-linejoin="round"/>
<path d="M1492.33 787.183L1528.52 751.767L1562.77 787.183H1642.08L1606.84 751.767H1528.52" stroke="#FFF6DB" stroke-linecap="round" stroke-linejoin="round"/>
<path d="M1601.53 809.169H1580.3V830.389H1601.53V809.169Z" fill="#0C706E"/>
<path d="M1631.16 809.169H1609.94V830.389H1631.16V809.169Z" fill="#0C706E"/>
<path d="M1793.61 590.929C1793.61 590.929 1805.86 585.843 1806.99 575.67L1790.56 573.759C1790.56 573.759 1767.42 571.337 1769.12 544.601C1769.12 544.601 1787.42 545.462 1790.49 572.912L1793.61 590.929Z" fill="#0C706E" stroke="#FFF6DB" stroke-linecap="round" stroke-linejoin="round"/>
<path d="M1769.04 550.696L1759.82 547.736L1769.12 544.601" fill="#0C706E"/>
<path d="M1769.04 550.696L1759.82 547.736L1769.12 544.601" stroke="#FFF6DB" stroke-linecap="round" stroke-linejoin="round"/>
<path d="M1804.59 559.362C1804.59 559.362 1816.84 554.275 1817.97 544.103L1801.54 542.192C1801.54 542.192 1778.4 539.77 1780.1 513.033C1780.1 513.033 1798.4 513.894 1801.47 541.344L1804.59 559.362Z" fill="#0C706E" stroke="#FFF6DB" stroke-linecap="round" stroke-linejoin="round"/>
<path d="M1780.02 519.129L1770.8 516.168L1780.11 513.02" fill="#0C706E"/>
<path d="M1780.02 519.129L1770.8 516.168L1780.11 513.02" stroke="#FFF6DB" stroke-linecap="round" stroke-linejoin="round"/>
<path d="M1779.41 787.156C1781.97 786.456 1784.24 784.976 1786.51 783.577C1809.38 769.26 1835.1 759.45 1856.36 742.805C1860.71 739.401 1865.18 735.028 1865.22 729.511C1865.22 728.865 1865.15 728.165 1864.76 727.654C1864.28 727.022 1863.46 726.793 1862.68 726.604C1852.91 724.33 1842.79 724.008 1832.75 724.075C1815.04 724.182 1796.14 725.864 1782.19 736.764C1778.7 739.482 1775.64 742.711 1772.66 745.967C1769.97 748.914 1767.27 751.969 1765.62 755.602C1763.99 759.181 1763.43 763.137 1762.71 766.999C1761.96 771.103 1756.98 782.729 1760.29 785.555C1763.14 787.977 1775.89 788.111 1779.41 787.156Z" fill="#CADF7E" stroke="#FFF6DB" stroke-linecap="round" stroke-linejoin="round"/>
<path d="M1774.46 787.264C1776.4 786.698 1778.11 785.514 1779.82 784.37C1797.11 772.839 1816.56 764.927 1832.61 751.511C1835.9 748.766 1839.27 745.241 1839.3 740.8C1839.3 740.276 1839.25 739.724 1838.95 739.307C1838.59 738.796 1837.95 738.607 1837.38 738.459C1829.99 736.629 1822.34 736.373 1814.75 736.414C1801.38 736.495 1787.08 737.854 1776.55 746.64C1773.91 748.834 1771.61 751.431 1769.35 754.054C1767.31 756.423 1765.28 758.885 1764.03 761.818C1762.79 764.698 1762.38 767.887 1761.84 771.009C1761.26 774.305 1757.5 783.684 1760.01 785.958C1762.16 787.909 1771.8 788.017 1774.46 787.25V787.264Z" fill="#CADF7E" stroke="#FFF6DB" stroke-linecap="round" stroke-linejoin="round"/>
<path d="M1768.55 787.358C1770.1 786.9 1771.47 785.958 1772.83 785.057C1786.64 775.853 1802.17 769.529 1815 758.818C1817.62 756.625 1820.31 753.812 1820.34 750.273C1820.34 749.856 1820.3 749.412 1820.06 749.076C1819.77 748.672 1819.26 748.524 1818.8 748.403C1812.91 746.936 1806.8 746.734 1800.74 746.775C1790.06 746.842 1778.65 747.919 1770.23 754.943C1768.14 756.692 1766.29 758.764 1764.49 760.863C1762.86 762.76 1761.24 764.725 1760.25 767.066C1759.27 769.367 1758.93 771.91 1758.5 774.4C1758.04 777.037 1755.04 784.519 1757.03 786.335C1758.76 787.896 1766.44 787.977 1768.57 787.358H1768.55Z" fill="#CADF7E" stroke="#FFF6DB" stroke-linecap="round" stroke-linejoin="round"/>
<path d="M1695.01 787.721H1767C1767 787.721 1836.29 731.045 1790.07 699.302C1790.07 699.302 1759.24 681.433 1727.25 723.779C1727.25 723.779 1712.89 740.195 1694.99 787.721H1695.01Z" fill="#0C706E" stroke="#FFF6DB" stroke-linecap="round" stroke-linejoin="round"/>
<path d="M1700.15 787.721H1761.84C1761.84 787.721 1821.19 739.159 1781.61 711.964C1781.61 711.964 1755.19 696.652 1727.79 732.929C1727.79 732.929 1715.47 746.99 1700.16 787.707L1700.15 787.721Z" fill="#0C706E" stroke="#FFF6DB" stroke-linecap="round" stroke-linejoin="round"/>
<path d="M1705.11 787.721H1756.24C1756.24 787.721 1805.43 747.474 1772.62 724.936C1772.62 724.936 1750.72 712.247 1728.02 742.321C1728.02 742.321 1717.82 753.974 1705.11 787.721Z" fill="#0C706E" stroke="#FFF6DB" stroke-linecap="round" stroke-linejoin="round"/>
<path d="M1710.64 787.721H1750.18C1750.18 787.721 1788.21 756.597 1762.85 739.172C1762.85 739.172 1745.92 729.363 1728.35 752.615C1728.35 752.615 1720.47 761.63 1710.64 787.721Z" fill="#0C706E" stroke="#FFF6DB" stroke-linecap="round" stroke-linejoin="round"/>
<path d="M1549.24 1059.76L1593.71 1080.36L1642.14 1061.92" stroke="#CADF7E" stroke-width="2" stroke-linecap="round" stroke-linejoin="round"/>
<path d="M1559.73 1043.85L1593.71 1080.36L1632.75 1042.4" stroke="#CADF7E" stroke-width="2" stroke-linecap="round" stroke-linejoin="round"/>
<path d="M1577.07 1031.57L1593.71 1080.36L1615.39 1031.57" stroke="#CADF7E" stroke-width="2" stroke-linecap="round" stroke-linejoin="round"/>
<path d="M1596.24 1027.58L1593.71 1080.36" stroke="#CADF7E" stroke-width="2" stroke-linecap="round" stroke-linejoin="round"/>
<path d="M1565.81 586.475C1569.94 586.475 1573.29 583.126 1573.29 578.994C1573.29 574.862 1569.94 571.512 1565.81 571.512C1561.68 571.512 1558.33 574.862 1558.33 578.994C1558.33 583.126 1561.68 586.475 1565.81 586.475Z" fill="#FFF6DB"/>
<path d="M1524.48 614.598L1528.57 619.563C1528.57 619.563 1539.85 602.703 1555.35 601.088V631.216H1576.68V601.088C1576.68 601.088 1597.64 604.371 1579.54 630.341L1583.01 634.243C1583.01 634.243 1609.44 616.441 1586.06 593.903C1583.37 591.306 1579.77 589.866 1576.04 589.866H1552.9C1550.27 589.866 1547.68 590.579 1545.44 591.938C1540.15 595.154 1530.59 602.272 1524.49 614.598H1524.48Z" fill="#CA8A2A"/>
<path d="M1565.96 625.309C1555.78 625.309 1547.55 633.557 1547.55 643.716V677.988H1554.3V653.068C1554.3 646.636 1559.53 641.415 1565.96 641.415C1572.39 641.415 1577.61 646.636 1577.61 653.068V677.988H1584.37V643.716C1584.37 633.544 1576.12 625.309 1565.96 625.309Z" fill="#113D3C"/>
<path d="M1418.76 725.044C1419.04 724.155 1419.97 723.846 1420.92 724.465C1421.69 725.582 1422.24 727.035 1422.43 728.394C1423.14 733.534 1423.08 738.567 1424.37 743.707C1425.55 748.457 1428.03 754.297 1431.47 757.661C1430.65 754.768 1429.2 752.197 1428.35 749.291C1426.67 743.626 1425.06 732.861 1425.37 726.995C1425.42 725.932 1425.51 722.622 1426.79 722.581C1428.19 722.527 1429.05 724.546 1429.47 725.73C1431.85 732.364 1431.78 739.643 1433.95 746.425C1435.49 751.242 1438.39 757.338 1442.46 760.19C1442.79 759.733 1438.72 751.161 1438.2 749.614C1436.41 744.205 1434.68 734.799 1435.15 729.134C1435.22 728.354 1435.53 727.614 1435.57 726.82C1438.06 726.456 1439.2 729.605 1440.09 731.583C1443.96 740.262 1444.29 747.744 1450.19 756.059C1451.92 758.481 1454.92 762.747 1458.04 762.316C1459.52 761.939 1457.77 755.857 1456.74 755.185C1454.66 750.502 1451.1 746.748 1448.22 742.55L1448.62 740.383C1450.69 739.024 1455.54 743.169 1457.18 744.568C1469.02 754.754 1471.32 773.552 1489.03 776.606C1494.89 777.616 1499.76 776.997 1504.19 775.503C1504.94 775.247 1505.68 774.965 1506.41 774.669C1508.53 773.794 1510.57 772.731 1512.6 771.574C1513.98 770.78 1515.36 769.946 1516.76 769.098C1520.48 766.824 1524.29 764.442 1528.61 762.518C1531.63 761.173 1536.54 759.02 1536.92 761.267C1536.97 761.563 1536.94 761.939 1536.82 762.397C1536.62 763.137 1536.19 764.119 1535.44 765.384C1534.97 766.178 1534.4 767.012 1533.77 767.86C1533.26 768.546 1532.69 769.246 1532.1 769.946C1527.36 775.543 1520.3 781.437 1515.21 784.491C1514.66 784.828 1514.11 785.137 1513.55 785.447C1512.71 785.918 1511.86 786.375 1511 786.806C1508.4 788.111 1505.75 789.228 1503.07 790.156C1502.44 790.372 1501.81 790.574 1501.17 790.775C1497.93 791.785 1494.66 792.511 1491.38 792.982C1490.68 793.09 1489.96 793.171 1489.25 793.251C1488.64 793.319 1488.02 793.372 1487.42 793.426C1486.88 793.467 1486.36 793.493 1485.82 793.534C1449.95 796.75 1414.84 766.784 1418.76 725.03V725.044Z" fill="#FFF6DB"/>
<path d="M1237.7 926.787L1304.89 975.807H1594.23L1526.12 926.787H1237.7Z" fill="#113D3C"/>
<path d="M1361.56 929.747L1300.11 972.322L1304.89 975.807H1428.3L1361.56 929.747Z" stroke="#00B2AA" stroke-linecap="round" stroke-linejoin="round"/>
<path d="M1386.51 926.787L1454.41 975.807" stroke="#FFF6DB" stroke-linecap="round" stroke-linejoin="round"/>
<path d="M1410.66 926.787L1478.54 975.807" stroke="#FFF6DB" stroke-linecap="round" stroke-linejoin="round"/>
<path d="M1434.48 926.787L1502.37 975.807" stroke="#FFF6DB" stroke-linecap="round" stroke-linejoin="round"/>
<path d="M1457.72 926.787L1525.61 975.807" stroke="#FFF6DB" stroke-linecap="round" stroke-linejoin="round"/>
<path d="M1478.54 926.787L1546.43 975.807" stroke="#FFF6DB" stroke-linecap="round" stroke-linejoin="round"/>
<path d="M1501.15 926.787L1569.03 975.807" stroke="#FFF6DB" stroke-linecap="round" stroke-linejoin="round"/>
<path d="M1395.23 992.788H1364.21V1037.74H1395.23V992.788Z" fill="#00B2AA" stroke="#FFF6DB" stroke-linecap="round" stroke-linejoin="round"/>
<path d="M1493.38 1004.02H1452.91V1026.51H1493.38V1004.02Z" fill="#CADF7E" stroke="#FFF6DB" stroke-linecap="round" stroke-linejoin="round"/>
<path d="M1549.24 1004.02H1508.78V1026.51H1549.24V1004.02Z" fill="#CADF7E" stroke="#FFF6DB" stroke-linecap="round" stroke-linejoin="round"/>
<path d="M1756.04 1027.41H1824.82L1852.06 1000.46H1784.18L1756.04 1027.41Z" fill="#00B2AA" stroke="#113D3C" stroke-linecap="round" stroke-linejoin="round"/>
<path d="M1823.47 1079.2H1852.06V1000.46L1824.82 1027.41L1823.47 1079.2Z" fill="#0C706E" stroke="#113D3C" stroke-linecap="round" stroke-linejoin="round"/>
<path d="M1756.04 1079.2V1027.41H1824.82L1823.47 1079.2H1756.04Z" fill="#0C706E" stroke="#113D3C" stroke-linecap="round" stroke-linejoin="round"/>
<path d="M1791.47 1048.66L1800.14 1050.92L1791.05 1036.84C1789.53 1034.49 1786.09 1034.46 1784.54 1036.8L1780.37 1043.11" stroke="#113D3C" stroke-linecap="round" stroke-linejoin="round"/>
<path d="M1802.06 1042.76L1800.15 1050.92" stroke="#113D3C" stroke-linecap="round" stroke-linejoin="round"/>
<path d="M1791.81 1062.35L1785.31 1068.52L1802.06 1068.26C1804.86 1068.22 1806.71 1065.31 1805.54 1062.76L1802.39 1055.87" stroke="#113D3C" stroke-linecap="round" stroke-linejoin="round"/>
<path d="M1791.22 1074.45L1785.31 1068.52" stroke="#113D3C" stroke-linecap="round" stroke-linejoin="round"/>
<path d="M1780.57 1055.53L1777.76 1047.03L1770.85 1062.3C1769.7 1064.86 1771.54 1067.75 1774.35 1067.79L1781.92 1067.87" stroke="#113D3C" stroke-linecap="round" stroke-linejoin="round"/>
<path d="M1769.89 1049.84L1777.77 1047.02" stroke="#113D3C" stroke-linecap="round" stroke-linejoin="round"/>
<path d="M1454.57 660.859H1323.48V668.825H1454.57V660.859Z" fill="#113D3C"/>
<path d="M1360.19 645.519V621.635H1351.25C1339.25 621.635 1329.41 631.176 1329.06 643.178L1328.54 660.859H1450.89V643.649C1450.89 629.023 1439.04 617.168 1424.41 617.168H1364.86V645.708L1360.2 645.519H1360.19Z" stroke="#113D3C" stroke-linecap="round" stroke-linejoin="round"/>
<path d="M1432.23 645.708L1445.44 660.859H1450.88V642.25C1450.88 628.39 1439.64 617.168 1425.8 617.168H1364.84V645.708H1432.23Z" fill="#00B2AA" stroke="#113D3C" stroke-linecap="round" stroke-linejoin="round"/>
<path d="M1328.89 648.776C1328.89 648.776 1350.77 647.121 1353.93 621.635C1353.93 621.635 1326.71 619.025 1328.89 648.776Z" fill="#00B2AA" stroke="#113D3C" stroke-linecap="round" stroke-linejoin="round"/>
<path d="M1346.22 678.002C1354.29 678.002 1360.83 671.459 1360.83 663.389C1360.83 655.318 1354.29 648.776 1346.22 648.776C1338.15 648.776 1331.6 655.318 1331.6 663.389C1331.6 671.459 1338.15 678.002 1346.22 678.002Z" fill="#113D3C"/>
<path d="M1420.87 678.002C1428.94 678.002 1435.48 671.459 1435.48 663.389C1435.48 655.318 1428.94 648.776 1420.87 648.776C1412.8 648.776 1406.25 655.318 1406.25 663.389C1406.25 671.459 1412.8 678.002 1420.87 678.002Z" fill="#113D3C"/>
<path d="M1824.24 1027.41H1893.02L1920.26 1000.46H1852.38L1824.24 1027.41Z" fill="#00B2AA" stroke="#113D3C" stroke-linecap="round" stroke-linejoin="round"/>
<path d="M1891.68 1079.2H1920.26V1000.46L1893.02 1027.41L1891.68 1079.2Z" fill="#0C706E" stroke="#113D3C" stroke-linecap="round" stroke-linejoin="round"/>
<path d="M1824.24 1079.2V1027.41H1893.02L1891.68 1079.2H1824.24Z" fill="#0C706E" stroke="#113D3C" stroke-linecap="round" stroke-linejoin="round"/>
<path d="M1859.68 1048.66L1868.34 1050.92L1859.26 1036.84C1857.74 1034.49 1854.29 1034.46 1852.74 1036.8L1848.57 1043.11" stroke="#113D3C" stroke-linecap="round" stroke-linejoin="round"/>
<path d="M1870.27 1042.76L1868.36 1050.92" stroke="#113D3C" stroke-linecap="round" stroke-linejoin="round"/>
<path d="M1860.01 1062.35L1853.51 1068.52L1870.27 1068.26C1873.07 1068.22 1874.91 1065.31 1873.74 1062.76L1870.59 1055.87" stroke="#113D3C" stroke-linecap="round" stroke-linejoin="round"/>
<path d="M1859.42 1074.45L1853.51 1068.52" stroke="#113D3C" stroke-linecap="round" stroke-linejoin="round"/>
<path d="M1848.77 1055.53L1845.96 1047.03L1839.06 1062.3C1837.9 1064.86 1839.74 1067.75 1842.56 1067.79L1850.12 1067.87" stroke="#113D3C" stroke-linecap="round" stroke-linejoin="round"/>
<path d="M1838.09 1049.84L1845.98 1047.03" stroke="#113D3C" stroke-linecap="round" stroke-linejoin="round"/>
<path d="M1907.84 931.604L1907.41 931.537C1911 906.778 1897.59 882.531 1874.61 872.425C1859.86 865.94 1843.03 866.128 1828.43 872.964C1826.76 873.744 1826.03 875.736 1826.81 877.404C1827.59 879.073 1829.58 879.799 1831.25 879.019C1844.12 873.004 1858.94 872.829 1871.92 878.548C1892.14 887.442 1903.94 908.756 1900.82 930.528L1900.47 930.474C1899.79 930.366 1899.27 931.053 1899.55 931.685L1902.38 937.861C1902.63 938.426 1903.39 938.534 1903.79 938.077L1908.34 933.031C1908.8 932.519 1908.51 931.712 1907.83 931.604H1907.84Z" fill="url(#paint0_linear_84_821)"/>
<path d="M1880.09 968.164C1879.22 966.536 1877.18 965.944 1875.57 966.818C1862.08 974.111 1846.31 974.757 1832.3 968.595C1822.06 964.087 1813.88 956.484 1808.66 946.621C1803.7 937.269 1801.89 926.451 1803.5 916.063L1803.68 916.09C1804.35 916.197 1804.88 915.511 1804.59 914.879L1801.77 908.703C1801.51 908.137 1800.76 908.03 1800.35 908.487L1795.8 913.533C1795.35 914.045 1795.63 914.852 1796.32 914.96L1796.92 915.054C1795.09 926.855 1797.15 939.14 1802.78 949.756C1808.71 960.965 1818 969.604 1829.64 974.717C1836.81 977.866 1844.33 979.467 1852.06 979.467C1852.99 979.467 1853.93 979.44 1854.87 979.4C1863.17 978.982 1871.44 976.668 1878.77 972.712C1880.4 971.837 1880.99 969.806 1880.12 968.191L1880.09 968.164Z" fill="url(#paint1_linear_84_821)"/>
<path d="M1383.29 468L1383.29 467.78L1383.29 321" stroke="#27BCE1" stroke-width="2"/>
<path d="M1824.31 480L1824.31 479.78L1824.31 333" stroke="#27BCE1" stroke-width="2"/>
<path d="M1824.31 333L1824.31 332.78L1824.31 186" stroke="#27BCE1" stroke-width="2"/>
<path d="M1824.31 186L1824.31 185.78L1824.31 39" stroke="#27BCE1" stroke-width="2"/>
<path d="M1824.31 109L1824.31 108.78L1824.31 -38" stroke="#27BCE1" stroke-width="2"/>
<path d="M1383.29 321L1383.29 320.78L1383.29 174" stroke="#27BCE1" stroke-width="2"/>
<path d="M1383.29 174L1383.29 173.78L1383.29 27" stroke="#27BCE1" stroke-width="2"/>
<path d="M1383.29 89L1383.29 88.7802L1383.29 -58" stroke="#27BCE1" stroke-width="2"/>
<path d="M1395.23 467.5L1395.23 467.78L1395.23 321" stroke="#27BCE1" stroke-width="2"/>
<path d="M1839.1 479.719L1839.1 480L1839.1 333" stroke="#27BCE1" stroke-width="2"/>
<path d="M1839.1 332.719L1839.1 333L1839.1 186" stroke="#27BCE1" stroke-width="2"/>
<path d="M1839.1 185.719L1839.1 186L1839.1 39" stroke="#27BCE1" stroke-width="2"/>
<path d="M1839.1 108.719L1839.1 109L1839.1 -38" stroke="#27BCE1" stroke-width="2"/>
<path d="M1395.23 320.5L1395.23 320.78L1395.23 174" stroke="#27BCE1" stroke-width="2"/>
<path d="M1395.23 173.5L1395.23 173.78L1395.23 27" stroke="#27BCE1" stroke-width="2"/>
<path d="M1395.23 88.5L1395.23 88.7802L1395.23 -58" stroke="#27BCE1" stroke-width="2"/>
<path d="M1370.31 468L1370.31 467.78L1370.31 321" stroke="#27BCE1" stroke-width="2"/>
<path d="M1808.67 480L1808.67 479.78L1808.67 333" stroke="#27BCE1" stroke-width="2"/>
<path d="M1808.67 333L1808.67 332.78L1808.67 186" stroke="#27BCE1" stroke-width="2"/>
<path d="M1808.67 186L1808.67 185.78L1808.67 39" stroke="#27BCE1" stroke-width="2"/>
<path d="M1808.67 109L1808.67 108.78L1808.67 -38" stroke="#27BCE1" stroke-width="2"/>
<path d="M1370.31 321L1370.31 320.78L1370.31 174" stroke="#27BCE1" stroke-width="2"/>
<path d="M1370.31 174L1370.31 173.78L1370.31 27" stroke="#27BCE1" stroke-width="2"/>
<path d="M1370.31 89L1370.31 88.7802L1370.31 -58" stroke="#27BCE1" stroke-width="2"/>
<path d="M1357.65 468L1357.65 467.78L1357.65 321" stroke="#27BCE1" stroke-width="2"/>
<path d="M1794.4 480L1794.4 479.78L1794.4 333" stroke="#27BCE1" stroke-width="2"/>
<path d="M1794.4 333L1794.4 332.78L1794.4 186" stroke="#27BCE1" stroke-width="2"/>
<path d="M1794.4 186L1794.4 185.78L1794.4 39" stroke="#27BCE1" stroke-width="2"/>
<path d="M1794.4 109L1794.4 108.78L1794.4 -38" stroke="#27BCE1" stroke-width="2"/>
<path d="M1357.65 321L1357.65 320.78L1357.65 174" stroke="#27BCE1" stroke-width="2"/>
<path d="M1357.65 174L1357.65 173.78L1357.65 27" stroke="#27BCE1" stroke-width="2"/>
<path d="M1357.65 89L1357.65 88.7802L1357.65 -58" stroke="#27BCE1" stroke-width="2"/>
</g>
<defs>
<linearGradient id="paint0_linear_84_821" x1="1915.53" y1="920.651" x2="1829.04" y2="870.706" gradientUnits="userSpaceOnUse">
<stop stop-color="#CA8A2A"/>
<stop offset="0.29" stop-color="#CA8B2C" stop-opacity="0.99"/>
<stop offset="0.44" stop-color="#CD9034" stop-opacity="0.95"/>
<stop offset="0.56" stop-color="#D19841" stop-opacity="0.88"/>
<stop offset="0.67" stop-color="#D6A454" stop-opacity="0.78"/>
<stop offset="0.76" stop-color="#DEB36D" stop-opacity="0.65"/>
<stop offset="0.85" stop-color="#E7C68C" stop-opacity="0.5"/>
<stop offset="0.92" stop-color="#F2DBB0" stop-opacity="0.32"/>
<stop offset="1" stop-color="#FFF6DB" stop-opacity="0.1"/>
</linearGradient>
<linearGradient id="paint1_linear_84_821" x1="1876.78" y1="977.072" x2="1788.49" y2="926.09" gradientUnits="userSpaceOnUse">
<stop stop-color="#FFF6DB" stop-opacity="0.1"/>
<stop offset="0.06" stop-color="#F6E5BF" stop-opacity="0.24"/>
<stop offset="0.15" stop-color="#EACD97" stop-opacity="0.44"/>
<stop offset="0.26" stop-color="#E0B875" stop-opacity="0.61"/>
<stop offset="0.37" stop-color="#D8A75A" stop-opacity="0.75"/>
<stop offset="0.49" stop-color="#D29A44" stop-opacity="0.86"/>
<stop offset="0.62" stop-color="#CD9135" stop-opacity="0.94"/>
<stop offset="0.77" stop-color="#CA8B2C" stop-opacity="0.99"/>
<stop offset="1" stop-color="#CA8A2A"/>
</linearGradient>
<clipPath id="clip0_84_821">
<rect width="1920" height="1080" fill="white"/>
</clipPath>
</defs>
</svg>
