<svg width="37" height="36" viewBox="0 0 37 36" fill="none" xmlns="http://www.w3.org/2000/svg">
<path d="M36.8603 31.0244H33.6115V31.687H34.8172V35.0095H35.6363V31.687H36.8603V31.0244ZM31.9457 32.0276L32.4427 33.5185H31.4487L31.9457 32.0276ZM32.9397 35.0095H33.814L32.323 31.0244H31.5592L30.0774 35.0095H30.9517L31.2278 34.1904H32.6636L32.9397 35.0095ZM30.2799 31.0244H27.0311V31.687H28.2367V35.0095H29.0559V31.687H30.2799V31.0244ZM26.5985 31.0244H25.7794V35.0095H26.5985V31.0244ZM22.9632 31.687H23.5338C23.7639 31.687 23.9296 31.7239 24.0308 31.8067C24.132 31.8895 24.1873 32.0184 24.1873 32.1932C24.1873 32.5153 23.9848 32.681 23.5614 32.6902H22.954V31.687H22.9632ZM23.7179 33.27C24.0952 33.27 24.2885 33.4633 24.2885 33.8222C24.2885 33.9879 24.2333 34.1075 24.1228 34.1996C24.0124 34.2916 23.8651 34.3376 23.6719 34.3376H22.9724V33.2608H23.7271L23.7179 33.27ZM23.6903 35.0095C24.1412 35.0095 24.491 34.9082 24.7395 34.7057C24.988 34.5125 25.1076 34.218 25.1076 33.8314C25.1076 33.6105 25.0524 33.4173 24.9327 33.2608C24.8131 33.1044 24.6566 33.0031 24.445 32.9479C24.6198 32.8743 24.7671 32.773 24.8683 32.6166C24.9695 32.4693 25.0156 32.2945 25.0156 32.1012C25.0156 31.7423 24.8867 31.4754 24.6382 31.2913C24.3897 31.1072 24.0216 31.0152 23.5338 31.0152H22.1349V35.0003H23.6811L23.6903 35.0095ZM19.8985 32.0276L20.3955 33.5185H19.4015L19.8985 32.0276ZM20.9017 35.0095H21.776L20.285 31.0244H19.5211L18.0394 35.0095H18.9137L19.1898 34.1904H20.6255L20.9017 35.0095ZM17.6068 31.0244H16.7877V32.635H15.1864V31.0244H14.3673V35.0095H15.1864V33.2976H16.7877V35.0095H17.6068V31.0244ZM13.677 32.9847H12.14V33.6198H13.677V32.9847ZM10.6859 31.0244V33.675C10.6859 34.1628 10.4466 34.402 9.98644 34.402C9.76556 34.402 9.5907 34.3468 9.47105 34.2272C9.35141 34.1075 9.28699 33.9143 9.28699 33.6566V31.0244H8.46788V33.6842C8.46788 34.1167 8.61514 34.4573 8.88204 34.6965C9.15814 34.945 9.52627 35.0647 9.98644 35.0647C10.4466 35.0647 10.8332 34.9358 11.1001 34.6873C11.3762 34.4296 11.505 34.0891 11.505 33.6566V31.0336H10.6767L10.6859 31.0244ZM7.77763 31.0244H6.95853V33.6566L5.35714 31.0244H4.53804V35.0095H5.35714V32.3865L6.95853 35.0095H7.77763V31.0244ZM3.11152 33.1228C3.11152 33.5369 3.03789 33.8498 2.89064 34.0707C2.74338 34.2916 2.5317 34.3928 2.2556 34.3928C1.9795 34.3928 1.75862 34.2824 1.61137 34.0523C1.46411 33.8314 1.39049 33.5093 1.39049 33.1044V32.9111C1.39049 32.4969 1.46411 32.184 1.62057 31.9723C1.76782 31.7607 1.9795 31.6502 2.2556 31.6502C2.5317 31.6502 2.74338 31.7607 2.89984 31.9723C3.04709 32.1932 3.12072 32.5061 3.12072 32.9203V33.1136L3.11152 33.1228ZM3.93982 32.9295C3.93982 32.543 3.8662 32.1932 3.72815 31.8987C3.59009 31.6042 3.38762 31.3741 3.12992 31.2085C2.87223 31.052 2.57772 30.9692 2.2464 30.9692C1.91508 30.9692 1.62057 31.052 1.36287 31.2085C1.10518 31.3649 0.902707 31.595 0.764656 31.8987C0.626605 32.1932 0.552979 32.543 0.552979 32.9387V33.132C0.552979 33.5185 0.626605 33.8498 0.764656 34.1443C0.902707 34.4389 1.10518 34.6689 1.36287 34.8254C1.62057 34.9819 1.91508 35.0647 2.2464 35.0647C2.57772 35.0647 2.87223 34.9819 3.12992 34.8254C3.38762 34.6689 3.59009 34.4389 3.72815 34.1443C3.8662 33.8498 3.93982 33.5001 3.93982 33.1136V32.9387V32.9295Z" fill="#1BAFDE"/>
<path d="M14.0728 28.1161C15.2324 26.5331 18.6008 24.7477 21.8588 24.7477C25.1168 24.7477 28.8074 26.6436 30.1695 25.5852C30.1695 25.5852 28.6969 26.8461 25.7518 26.8461C22.8068 26.8461 21.6471 25.3735 19.65 25.3735C17.6529 25.3735 15.4441 26.9565 14.5973 28.3186L14.0728 28.1069V28.1161Z" fill="#1BAFDE"/>
<path d="M24.491 24.536C24.491 24.536 25.4389 24.0114 25.9635 22.953C26.4881 21.9038 27.8594 20.2196 29.1203 19.2717C29.1203 19.2717 27.6477 23.901 26.0647 24.1126C26.0647 24.1126 25.8531 24.2139 26.2764 24.2139C26.6998 24.1126 28.6969 23.4776 29.4332 23.3764C30.1694 23.2751 31.8537 22.8518 32.277 22.4284C32.7004 22.0051 32.9121 22.1155 32.9121 22.1155C32.9121 22.1155 31.0162 25.2723 27.5465 25.2723C27.6477 25.0606 25.9635 24.9594 24.491 24.536Z" fill="#1BAFDE"/>
<path d="M28.5959 22.9623C28.5959 22.9623 28.9089 22.4377 29.0193 21.4897C29.1205 20.5418 29.6543 18.4342 31.3386 16.1241C31.3386 16.1241 31.5502 19.8055 29.7556 22.0143C29.7556 22.0143 29.6543 22.3272 29.8568 22.1155C30.0685 21.9039 31.3294 20.5326 33.8511 18.8576C33.8511 18.8576 35.2224 17.8084 35.2224 17.4862C35.2224 17.385 34.1732 22.5389 28.5959 22.9623Z" fill="#1BAFDE"/>
<path d="M31.8539 19.4926C31.8539 19.4926 31.9551 18.8575 31.9551 18.4434C31.9551 17.9188 31.7434 16.2346 31.7434 15.4983C31.7434 14.762 31.8446 13.2895 32.3784 12.3416C32.3784 12.3416 32.3784 13.1791 32.5901 13.6024C32.8018 14.0258 33.0135 15.4983 33.0135 15.71C33.0135 15.9217 33.0135 17.1825 32.5901 17.8176C32.5901 17.8176 32.8018 17.7163 33.1147 17.1825C33.4276 16.6579 34.0627 15.8112 35.0106 14.762C35.9586 13.8141 36.2715 12.8661 36.2715 12.8661C36.2715 12.8661 36.4831 14.5504 35.2223 16.3358C33.9614 18.1213 33.4368 17.8084 32.7006 18.5446C32.7006 18.5446 31.9643 19.4926 31.863 19.4926" fill="#1BAFDE"/>
<path d="M33.8599 15.3878C33.8599 15.3878 33.8599 14.3387 33.6482 14.0165C33.4365 13.7036 32.2769 11.596 32.4886 9.07432C32.4886 9.07432 32.7003 8.86264 33.0132 9.91183C33.3261 10.961 33.8507 11.2831 34.0624 12.2311C34.274 13.2803 34.274 13.7036 34.274 13.7036C34.274 13.7036 34.3753 13.8049 34.3753 13.7036C34.3753 13.6024 34.4765 12.2311 35.1115 10.9702C35.7466 9.70935 36.4829 8.54973 36.3724 7.71222C36.3724 7.71222 36.6853 7.71222 36.6853 9.08352C36.5841 10.4548 36.262 12.7649 33.8415 15.397" fill="#1BAFDE"/>
<path d="M34.486 11.2832C34.486 11.2832 34.0627 10.3352 33.7498 10.0223C33.4368 9.70938 31.4305 6.86554 31.228 5.60468C31.228 5.60468 31.4397 5.50344 31.5409 5.81636C31.7526 6.12927 32.7006 7.07722 32.9122 7.18766C33.1239 7.28889 34.0719 8.34728 34.1731 9.50691C34.1731 9.50691 34.2743 9.60815 34.0719 7.72146C33.8602 5.82556 34.7069 4.5647 34.0719 3.30383C34.0719 3.30383 35.0198 3.40507 35.5444 7.2981C35.5444 7.2981 35.5444 8.6694 34.8081 10.3536C34.8081 10.4549 34.5965 11.3016 34.4952 11.3016" fill="#1BAFDE"/>
<path d="M33.7498 7.06796C33.7498 7.06796 33.0135 6.33169 32.3785 5.90834C31.7435 5.59542 29.8568 3.69953 29.5347 2.32822C29.5347 2.32822 29.6359 2.22698 30.2709 2.96325C30.6943 3.59829 31.2189 3.27617 32.5902 4.96039C32.5902 4.96039 32.8019 5.38374 32.9031 5.2733C33.0043 5.2733 32.9031 4.84995 32.9031 4.84995C32.9031 4.84995 32.5902 3.80076 32.5902 3.37741C32.5902 2.95405 31.9552 0.956917 31.8539 0.745239C31.8539 0.745239 33.7498 1.79442 33.9615 4.73951C33.9615 4.73951 33.8603 6.94832 33.7498 7.05876" fill="#1BAFDE"/>
<path d="M32.1761 3.91124C32.1761 3.91124 32.2773 1.38951 28.8076 0.119446C28.8076 0.119446 29.9672 2.53994 30.9152 3.06453C31.8631 3.58912 32.1761 3.90204 32.1761 3.90204" fill="#1BAFDE"/>
<path d="M23.3313 28.1161C22.1717 26.5331 18.8033 24.7477 15.5453 24.7477C12.2873 24.7477 8.59672 26.6436 7.23462 25.5852C7.23462 25.5852 8.70716 26.8461 11.6522 26.8461C14.5973 26.8461 15.757 25.3735 17.7541 25.3735C19.7512 25.3735 21.96 26.9565 22.8067 28.3186L23.3313 28.1069V28.1161Z" fill="#1BAFDE"/>
<path d="M12.812 24.536C12.812 24.536 11.864 24.0114 11.3394 22.953C10.8148 21.9038 9.55397 20.2196 8.18266 19.2717C8.18266 19.2717 9.65521 23.901 11.2382 24.1126C11.2382 24.1126 11.4499 24.2139 11.0265 24.2139C10.6032 24.1126 8.60602 23.4776 7.86975 23.3764C7.13348 23.2751 5.44926 22.8518 5.0259 22.4284C4.60255 22.0051 4.39087 22.1155 4.39087 22.1155C4.39087 22.1155 6.28677 25.2723 9.75644 25.2723C9.75644 25.0606 11.4407 24.9594 12.812 24.536Z" fill="#1BAFDE"/>
<path d="M8.8176 22.9623C8.8176 22.9623 8.50468 22.4377 8.39424 21.4897C8.293 20.5418 7.75921 18.4342 6.07499 16.1241C6.07499 16.1241 5.86331 19.8055 7.65797 22.0143C7.65797 22.0143 7.75921 22.3272 7.55674 22.1155C7.34506 21.9039 6.08419 20.5326 3.56247 18.8576C3.56247 18.8576 2.19116 17.8084 2.19116 17.4862C2.19116 17.385 3.13911 22.5389 8.8176 22.9623Z" fill="#1BAFDE"/>
<path d="M5.55038 19.4926C5.55038 19.4926 5.44915 18.8575 5.44915 18.4434C5.44915 17.9188 5.66082 16.2346 5.66082 15.4983C5.66082 14.762 5.55959 13.2895 5.02579 12.3416C5.02579 12.3416 5.02579 13.1791 4.81411 13.6024C4.60243 14.0258 4.39076 15.4983 4.39076 15.71C4.39076 15.9217 4.39076 17.1825 4.81411 17.8176C4.81411 17.8176 4.60243 17.7163 4.28952 17.1825C3.9766 16.6579 3.34157 15.8112 2.39362 14.762C1.44568 13.8141 1.13276 12.8661 1.13276 12.8661C1.13276 12.8661 0.921084 14.5504 2.18195 16.3358C3.44281 18.1213 3.9674 17.8084 4.70367 18.5446C4.60243 18.5446 5.43994 19.4926 5.54118 19.4926" fill="#1BAFDE"/>
<path d="M3.55322 15.3878C3.55322 15.3878 3.55322 14.3387 3.7649 14.0165C3.97658 13.7036 5.1362 11.596 4.92453 9.07432C4.92453 9.07432 4.71285 8.86264 4.39993 9.91183C4.08702 10.961 3.56243 11.2831 3.35075 12.2311C3.13907 13.2803 3.13907 13.7036 3.13907 13.7036C3.13907 13.7036 3.03783 13.8049 3.03783 13.7036C3.03783 13.6024 2.93659 12.2311 2.30156 10.9702C1.66653 9.70935 0.930258 8.54973 1.0407 7.71222C1.0407 7.71222 0.727783 7.71222 0.727783 9.08352C0.727783 10.4548 1.15114 12.7649 3.57163 15.397" fill="#1BAFDE"/>
<path d="M2.9181 11.2831C2.9181 11.2831 3.34145 10.3352 3.65437 10.0223C3.96728 9.70934 5.97362 6.8655 6.1761 5.60464C6.1761 5.60464 5.96442 5.5034 5.86318 5.81631C5.6515 6.12923 4.70355 7.07718 4.49187 7.18762C4.17896 7.39929 3.12057 8.44848 3.12057 9.60811C3.12057 9.60811 3.01933 9.70934 3.22181 7.82265C3.43348 5.92675 2.58677 4.66589 3.22181 3.40503C3.22181 3.40503 2.27386 3.50626 1.74927 7.39929C1.74927 7.39929 1.74927 8.7706 2.48554 10.4548C2.48554 10.4548 2.79845 11.2923 2.90889 11.2923" fill="#1BAFDE"/>
<path d="M3.65481 7.06796C3.65481 7.06796 4.39109 6.33169 5.02612 5.90834C5.66115 5.59542 7.54785 3.69953 7.86996 2.32822C7.86996 2.32822 7.76872 2.22698 7.13369 2.96325C6.71034 3.59829 6.18574 3.27617 4.81444 4.96039C4.81444 4.96039 4.60276 5.38374 4.50153 5.2733C4.40029 5.2733 4.60276 4.84995 4.60276 4.84995C4.60276 4.84995 4.91568 3.80076 4.91568 3.37741C4.91568 2.95405 5.55071 0.956917 5.65195 0.745239C5.65195 0.745239 3.75605 1.79442 3.54438 4.73951C3.44314 4.73951 3.54438 6.94832 3.64561 7.05876" fill="#1BAFDE"/>
<path d="M5.23786 3.91124C5.23786 3.91124 5.13662 1.38951 8.60629 0.119446C8.60629 0.119446 7.44667 2.53994 6.49872 3.06453C5.55077 3.58912 5.23786 3.90204 5.23786 3.90204" fill="#1BAFDE"/>
<path d="M24.7857 9.4793L25.9729 8.68781C25.9729 8.68781 26.6724 8.20003 26.3226 7.63863C25.9729 7.07722 25.4115 7.11403 24.6384 7.60181C24.482 7.70305 24.1967 7.88712 23.8469 8.12641L20.2852 2.95411C25.0802 3.61675 28.7431 7.16005 28.7431 11.4304C28.7431 12.4612 28.5314 13.446 28.1449 14.3571L24.7857 9.4793ZM20.4509 19.8791L20.3773 16.0321C23.2211 16.0045 26.157 15.9769 27.2338 15.9677C25.752 17.9924 23.3131 19.4466 20.4601 19.8791M8.58772 11.4304C8.58772 6.7551 12.9777 2.95411 18.4353 2.85287C17.7911 4.04011 16.3554 6.65387 15.0301 9.08356C14.5147 8.78905 14.165 8.58657 14.165 8.58657C14.165 8.58657 13.3919 8.26446 13.0606 8.76144C13.0606 8.76144 12.6648 9.32285 13.217 9.67257C13.3827 9.77381 13.8244 10.0223 14.3582 10.3168C13.1986 12.4336 12.2691 14.1546 12.2323 14.219C11.634 15.4247 12.4992 16.0781 13.8981 16.0965C14.0453 16.0965 15.6007 16.0873 17.6162 16.0689L17.5242 19.9712C12.4992 19.4834 8.58772 15.8572 8.58772 11.4396M20.5705 10.3904C20.8742 10.0867 21.0583 9.67257 21.0583 9.21241C21.0583 8.94551 20.9939 8.69702 20.8834 8.46693C21.1411 8.79825 21.4264 9.17559 21.7302 9.58054C21.2976 9.87505 20.8926 10.1604 20.5705 10.3812M20.322 13.3815C20.322 13.3815 20.2668 12.4336 21.1043 11.9458L22.7149 10.869C23.8745 12.406 24.8593 13.7037 24.9605 13.8417C25.0618 13.9798 25.0434 14.1546 24.6844 14.1546C24.4175 14.1546 22.6045 14.1822 20.3404 14.2098L20.322 13.3815ZM15.7756 11.0807C16.6775 11.5685 17.4598 11.9826 17.4598 11.9826C17.4598 11.9826 17.7083 12.0563 17.7083 12.4704L17.6623 14.2467C16.0793 14.2651 14.8184 14.2835 14.708 14.2835C14.0545 14.2835 14.2662 13.8325 14.4411 13.5288C14.7724 12.9214 15.2694 12.0102 15.7756 11.0807ZM19.9447 7.26129C19.9999 7.32571 20.2116 7.59261 20.5061 7.97915C20.2116 7.72146 19.8251 7.5558 19.4109 7.5558C18.4998 7.5558 17.7543 8.30127 17.7543 9.21241C17.7543 10.1235 18.4998 10.869 19.4109 10.869C19.6594 10.869 19.8987 10.8138 20.1104 10.7126C19.9447 10.8322 19.8435 10.8966 19.8435 10.8966C19.8435 10.8966 19.2452 11.3568 18.2697 10.8598C17.8831 10.6665 17.1653 10.2708 16.4382 9.86584C17.1561 8.54056 17.7635 7.40854 17.8095 7.2981C18.4537 5.99122 18.9875 6.02804 19.9447 7.26129ZM18.7022 0.349548C11.947 0.349548 6.47095 5.19973 6.47095 11.1819C6.47095 17.1641 11.947 22.0143 18.7022 22.0143C25.4575 22.0143 30.9335 17.1641 30.9335 11.1819C30.9335 5.19973 25.4575 0.349548 18.7022 0.349548Z" fill="#1BAFDE"/>
</svg>
